PathFileType	4	(X/Y/Z)	C:/Users/beibeiliu/ov580/test_trc/User3\sequence.27_training_dense_left.trc
DataRate	CameraRate	NumFrames	NumMarkers	Units	OrigDataRate	OrigDataStartFrame	OrigNumFrames
120	120	11	19	mm	120	70	276
Frame#	Time	ThumbCMC			ThumbMCP			ThumbIP			ThumbTip			IndexMCP			IndexPIP			IndexTip			MiddleMCP			MiddlePIP			MiddleTip			RingMCP			RingPIP			RingTip			PinkyMCP			PinkyPIP			PinkyTip			BackHand1			BackHand2			BackHand3	
		X0	Y0	Z0	X1	Y1	Z1	X2	Y2	Z2	X3	Y3	Z3	X4	Y4	Z4	X5	Y5	Z5	X6	Y6	Z6	X7	Y7	Z7	X8	Y8	Z8	X9	Y9	Z9	X10	Y10	Z10	X11	Y11	Z11	X12	Y12	Z12	X13	Y13	Z13	X14	Y14	Z14	X15	Y15	Z15	X16	Y16	Z16	X17	Y17	Z17	X18	Y18	Z18	
69	0.575	-165.147	-9.89066	6.19922	-147.344	-25.186	-24.548	-146.966	-43.9232	-49.1641	-160.991	-65.2741	-59.4294	-187.487	-2.45261	-69.9959	-188.454	-9.5786	-97.6173	-188.684	-16.1793	-119.361	-205.296	-18.6266	-77.1986	-202.641	-22.786	-100.352	-194.486	-29.2169	-132.585	-200.765	-48.8069	-62.9033	-179.036	-69.2172	-63.4406	-168.852	-62.5871	-31.518	-203.355	-67.4422	-46.7939	-177.477	-74.0795	-37.6897	-172	-64.0615	-11.7212	-225.732	-22.8661	-14.1245	-227.444	-23.2693	17.6236	-201.882	0.120386	-2.62269	
70	0.583333	-157.834	-14.2965	7.29423	-146.315	-32.9038	-20.2262	-146.044	-52.1853	-47.1865	-165.512	-69.3747	-58.6777	-181.343	-0.334811	-67.5473	-179.824	-2.10478	-90.8276	-183.134	-11.0217	-119.458	-197.443	-11.0404	-72.8424	-196.694	-16.1808	-99.532	-187.057	-19.9405	-129.565	-203.252	-42.1161	-64.1895	-179.571	-65.2779	-65.87	-173.096	-62.0177	-32.1326	-205.466	-64.6527	-48.5596	-184.595	-77.7751	-38.2799	-175.327	-61.1244	-11.7523	-222.722	-19.4865	-15.9651	-220.31	-17.7377	16.9161	-195.341	0.741862	0.288652	
71	0.591667	-155.422	-18.9593	5.91578	-141.399	-39.6604	-17.51	-148.5	-56.3438	-44.9199	-167.668	-72.6435	-58.7932	-178.412	-2.79285	-64.787	-174.72	-3.13212	-92.123	-175.518	-7.18691	-117.576	-193.73	-6.73937	-70.4746	-188.021	-9.35062	-98.26	-181.551	-16.0497	-131.392	-198.728	-37.1848	-66.0459	-184.917	-60.9194	-70.4374	-175.561	-62.4162	-33.4606	-209.753	-57.0361	-46.5461	-185.969	-73.5724	-39.3914	-177.248	-61.7363	-11.0685	-218.152	-15.1081	-16.1953	-219.976	-15.1981	16.2715	-187.692	3.13361	0.814502	
72	0.6	-151.931	-23.7561	13.8313	-141.548	-43.2959	-15.8265	-144.54	-58.5003	-45.0755	-168.737	-68.6658	-57.7984	-170.371	-1.31574	-61.9217	-168.095	-2.24251	-87.107	-164.847	-4.29334	-111.013	-188.281	-5.28441	-70.954	-183.587	-8.97585	-99.1745	-175.832	-14.8184	-126.821	-196.871	-35.0025	-64.0119	-181.555	-61.9041	-66.2907	-174.225	-61.9433	-31.8707	-206.237	-50.4078	-47.2548	-189.343	-72.8765	-39.8961	-183.426	-65.2416	-8.89828	-215.788	-10.7405	-11.8517	-216.051	-11.3855	20.947	-184.894	1.09056	5.73926	
73	0.608333	-152.173	-26.967	17.76	-144.307	-43.6019	-14.6531	-147.86	-57.8918	-44.9482	-164.54	-68.989	-59.2574	-159.959	-2.14129	-56.3381	-154.57	-2.12446	-84.1235	-155.941	-7.04676	-110.33	-176.923	-4.09557	-65.6492	-173.513	-7.2176	-92.0171	-165.091	-14.9924	-125.9	-190.335	-32.2127	-59.8998	-177.963	-62.8013	-60.7657	-176.003	-63.2975	-26.8397	-202.858	-50.5599	-48.524	-190.978	-73.0625	-37.0874	-183.833	-60.0477	-9.14569	-206.38	-7.21751	-12.5562	-215.755	-10.5022	16.8329	-179.716	0.490097	6.35721	
74	0.616667	-152.538	-29.5426	19.7047	-139.408	-48.2558	-10.4465	-145.859	-59.766	-41.7227	-160.045	-69.1896	-58.7637	-151.699	-6.48564	-53.8829	-146.241	-8.04954	-80.0637	-139.612	-11.3111	-105.048	-167.072	-5.99743	-65.6849	-161.416	-10.919	-90.131	-149.527	-16.5378	-117.998	-183.536	-32.4867	-56.7295	-177.419	-66.943	-58.1425	-175.304	-69.1976	-28.4434	-202.577	-49.2701	-46.6048	-189.678	-70.2085	-38.7204	-183.818	-62.119	-9.09269	-204.869	-8.49162	-8.94946	-207.894	-5.36607	20.7188	-173.147	0.000902002	10.1975	
75	0.625	-146.211	-32.6141	23.4945	-139.266	-52.8093	-5.5059	-139.745	-64.8462	-33.5926	-155.513	-73.4465	-53.57	-144.659	-10.9814	-50.488	-135.606	-15.9964	-77.9157	-125.898	-19.8031	-99.5164	-157.117	-10.5739	-60.9615	-150.461	-16.7595	-86.4875	-137.773	-25.954	-116.726	-179.216	-37.4923	-56.0207	-170.154	-67.4386	-56.7128	-173.124	-71.6814	-20.2041	-196.139	-47.1331	-42.569	-188.271	-73.1889	-34.634	-179.966	-63.8082	-5.46165	-192.612	-6.06377	-11.9433	-202.789	-4.28751	22.8106	-169.867	-0.305992	14.3916	
76	0.633333	-142.148	-33.3426	25.7471	-134.422	-56.2184	1.23096	-138.793	-68.0398	-27.688	-149.378	-78.8411	-48.8799	-131.711	-14.7117	-43.7597	-122.079	-20.6988	-70.3758	-118.417	-28.6185	-92.9288	-148.525	-16.2908	-59.8879	-141.464	-24.0727	-83.2764	-126.876	-33.9643	-107.475	-168.706	-39.3951	-51.4467	-167.389	-73.2858	-50.2073	-169.292	-76.1787	-18.7741	-190.993	-52.5019	-41.3969	-182.231	-75.5248	-29.8773	-176.602	-64.4273	2.53194	-189.445	-7.67936	-6.89392	-201.849	-3.4561	17.6685	-164.101	-0.135143	11.6409	
77	0.641667	-143.353	-30.2737	31.419	-132.689	-54.68	6.48995	-130.85	-73.1827	-19.4235	-142.932	-83.1372	-38.4231	-129.663	-18.8892	-42.3502	-117.292	-26.7785	-67.0891	-110.605	-36.6888	-90.2336	-142.057	-20.8537	-55.088	-132.369	-31.0005	-76.2525	-121.36	-45.6842	-102.462	-163.78	-46.4565	-48.1737	-160.716	-77.3476	-41.7112	-162.756	-76.5115	-8.35321	-181.881	-56.5809	-37.667	-173.14	-78.1687	-21.6761	-170.84	-65.9859	3.23915	-187.081	-7.26871	-9.73055	-198.717	-4.30642	19.7881	-162.116	0.455629	12.4149	
78	0.65	-136.187	-27.0409	35.953	-126.519	-53.9252	10.5423	-125.48	-73.4602	-11.1441	-138.557	-85.0091	-29.4903	-123.559	-22.5068	-41.5754	-111.033	-30.1483	-61.5282	-103.374	-42.3144	-82.1226	-142.259	-26.3154	-52.0447	-125.279	-39.4693	-76.8124	-110.642	-53.5495	-96.5605	-158.489	-48.5599	-42.7523	-153.019	-81.3469	-36.053	-154.524	-79.7985	-4.73929	-177.609	-58.2412	-30.917	-164.822	-80.7377	-13.9106	-165.092	-67.2447	11.1206	-181.8	-11.558	-5.57476	-194.473	-5.94599	18.5927	-157.108	0.0835871	15.2261	
79	0.658333	-134.801	-23.517	36.0869	-119.961	-51.7119	18.0973	-114.54	-74.9856	-3.54598	-127.575	-89.81	-21.3154	-121.315	-23.8814	-37.8281	-106.862	-36.2793	-61.8583	-96.2133	-44.795	-77.494	-136.046	-30.9584	-51.0286	-119.947	-42.0006	-69.1484	-105.886	-60.6419	-90.4309	-148.474	-55.8559	-40.7382	-143.28	-82.9557	-28.7005	-144.273	-78.3133	3.02483	-169.296	-64.5393	-27.1345	-158.229	-84.3092	-10.2555	-157.546	-68.9086	15.4186	-181.29	-15.7184	-5.94584	-192.112	-5.55631	16.8211	-157.145	2.36275	13.1133	
